<?xml version="1.0" encoding="utf-8"?>
<!-- Generator: Adobe Illustrator 16.0.0, SVG Export Plug-In . SVG Version: 6.00 Build 0)  -->
<!DOCTYPE svg PUBLIC "-//W3C//DTD SVG 1.1//EN" "http://www.w3.org/Graphics/SVG/1.1/DTD/svg11.dtd">
<svg version="1.1" id="Layer_1" xmlns="http://www.w3.org/2000/svg" xmlns:xlink="http://www.w3.org/1999/xlink" x="0px" y="0px"
	 width="148px" height="25px" viewBox="0 0 148 25" enable-background="new 0 0 148 25" xml:space="preserve">
<g>
	<path fill="#FFFFFF" d="M37,6.299h5.227c0.746,0,1.434,0.155,2.062,0.466c0.629,0.311,1.123,0.735,1.484,1.27
		c0.361,0.535,0.542,1.12,0.542,1.754c0,0.672-0.165,1.254-0.495,1.746c-0.33,0.491-0.762,0.868-1.297,1.129v0.15
		c0.697,0.249,1.25,0.643,1.661,1.185c0.41,0.541,0.616,1.19,0.616,1.95c0,0.734-0.196,1.385-0.588,1.951
		c-0.399,0.572-0.948,1.024-1.587,1.307c-0.665,0.305-1.403,0.457-2.212,0.457H37V6.299z M42.04,11.749
		c0.548,0,0.986-0.152,1.316-0.457c0.33-0.305,0.495-0.688,0.495-1.148c0-0.448-0.159-0.824-0.476-1.13
		c-0.318-0.304-0.738-0.457-1.26-0.457H39.52v3.192H42.04z M42.32,17.368c0.61,0,1.086-0.159,1.428-0.476
		c0.342-0.317,0.513-0.731,0.513-1.242c0-0.51-0.174-0.926-0.521-1.25c-0.349-0.324-0.847-0.485-1.494-0.485H39.52v3.453H42.32z
		 M55.247,19.963c-1.307,0-2.492-0.308-3.556-0.924c-1.05-0.602-1.917-1.476-2.511-2.53c-0.61-1.069-0.915-2.246-0.915-3.528
		c0-1.281,0.305-2.457,0.915-3.528c0.593-1.054,1.46-1.928,2.51-2.529C52.756,6.308,53.94,6,55.248,6
		c1.306,0,2.492,0.308,3.556,0.924c1.049,0.602,1.917,1.476,2.51,2.53c0.61,1.07,0.915,2.246,0.915,3.527
		c0,1.282-0.305,2.458-0.915,3.528c-0.593,1.054-1.46,1.929-2.51,2.53C57.74,19.655,56.554,19.963,55.247,19.963L55.247,19.963z
		 M55.247,17.573c0.79,0.008,1.569-0.191,2.258-0.578c0.679-0.38,1.239-0.942,1.615-1.624c0.392-0.697,0.588-1.494,0.588-2.39
		s-0.196-1.692-0.588-2.389c-0.376-0.681-0.936-1.244-1.615-1.624c-0.689-0.387-1.468-0.586-2.258-0.579
		c-0.788-0.009-1.564,0.191-2.25,0.579c-0.675,0.383-1.23,0.945-1.605,1.624c-0.392,0.697-0.588,1.493-0.588,2.39
		c0,0.895,0.196,1.692,0.588,2.389c0.375,0.68,0.93,1.241,1.605,1.624C53.683,17.383,54.459,17.582,55.247,17.573z M70.6,19.963
		c-1.307,0-2.492-0.308-3.556-0.924c-1.049-0.602-1.917-1.477-2.51-2.53c-0.61-1.069-0.915-2.246-0.915-3.528
		c0-1.281,0.305-2.457,0.914-3.528c0.594-1.054,1.461-1.928,2.511-2.529C68.108,6.308,69.294,6,70.6,6
		c1.307,0,2.492,0.308,3.556,0.924c1.049,0.602,1.916,1.476,2.51,2.53c0.609,1.07,0.915,2.246,0.915,3.527
		c0,1.282-0.306,2.458-0.914,3.528c-0.594,1.055-1.462,1.929-2.511,2.53C73.092,19.655,71.906,19.963,70.6,19.963z M70.6,17.573
		c0.791,0.008,1.569-0.191,2.259-0.578c0.679-0.38,1.238-0.942,1.614-1.624c0.392-0.697,0.587-1.494,0.587-2.39
		s-0.195-1.692-0.587-2.389c-0.376-0.681-0.936-1.243-1.614-1.624c-0.689-0.387-1.468-0.587-2.259-0.579
		c-0.788-0.009-1.564,0.191-2.25,0.579c-0.675,0.383-1.23,0.945-1.605,1.624c-0.392,0.697-0.588,1.493-0.588,2.39
		c0,0.895,0.196,1.692,0.588,2.389c0.375,0.68,0.931,1.242,1.606,1.624C69.037,17.383,69.813,17.582,70.6,17.573z M79.83,6.3h2.52
		v5.73h0.15l4.891-5.73h3.043v0.149L85.6,11.973l5.338,7.542v0.148h-3.08l-3.993-5.693l-1.513,1.773v3.92h-2.52V6.299L79.83,6.3z
		 M93.779,6h3.248l3.546,9.391h0.149L104.268,6h3.268v13.365h-2.501v-6.589l0.149-2.221h-0.149l-3.398,8.81h-1.96l-3.416-8.81
		h-0.148l0.149,2.221v6.59h-2.483V6H93.779z M114.579,6h2.894l5.021,13.365h-2.781l-1.12-3.192h-5.114l-1.121,3.192h-2.78L114.579,6
		z M117.771,13.859l-1.176-3.36l-0.486-1.606h-0.148l-0.484,1.606l-1.195,3.36H117.771L117.771,13.859z M124.553,6h4.872
		c0.871,0,1.646,0.18,2.324,0.541c0.678,0.361,1.204,0.862,1.577,1.503c0.374,0.64,0.56,1.366,0.56,2.175
		c0,0.858-0.27,1.62-0.812,2.286c-0.535,0.661-1.242,1.162-2.044,1.447l-0.019,0.13l3.584,5.134v0.15h-2.894l-3.453-5.022h-1.176
		v5.021h-2.521V6z M129.406,12.03c0.572,0,1.039-0.175,1.4-0.523c0.36-0.349,0.541-0.79,0.541-1.326c0-0.51-0.172-0.945-0.514-1.306
		s-0.807-0.542-1.391-0.542h-2.37v3.696L129.406,12.03L129.406,12.03z M136.636,6h2.521v5.73h0.15L144.195,6h3.044v0.15
		l-4.835,5.525l5.34,7.541v0.15h-3.08l-3.996-5.694l-1.512,1.773v3.92h-2.521V6z"/>
	<g>
		<circle fill="#5267DF" cx="12.5" cy="12.5" r="12.5"/>
		<path fill="#FFFFFF" d="M9,9v10l3.54-3.439L16.078,19V9c0-1.104-0.896-2-2-2H11C9.896,7,9,7.896,9,9z"/>
	</g>
</g>
</svg>
